<svg width="222" height="185" viewBox="0 0 222 185" xmlns="http://www.w3.org/2000/svg" xmlns:xlink="http://www.w3.org/1999/xlink"><title>Graphic5-AutoML@3x</title><defs><path d="M4.91.284A4.562 4.562 0 0 0 .35 4.846v173.567a4.561 4.561 0 0 0 4.562 4.562h86.537a4.561 4.561 0 0 0 4.562-4.562V4.846A4.562 4.562 0 0 0 91.448.284H4.911zm0 178.13h86.538V4.845H4.911v173.567z" id="a"/><path d="M3.427.214C1.535.214 0 1.575 0 3.255V27.74c0 1.678 1.535 3.04 3.427 3.04H125.51c1.894 0 3.428-1.362 3.428-3.04V3.255c0-1.68-1.534-3.041-3.428-3.041H3.427z" id="c"/><path d="M.007 14.733v7.41c0 7.823 6.277 14.227 14.1 14.304 3.027.03 5.915-.891 8.231-2.484 3.674-2.526 6.146-6.743 6.146-11.541v-7.41c0-7.823-6.273-14.225-14.1-14.302h-.142C6.482.71.007 6.958.007 14.732" id="e"/><path d="M.007 14.733v7.41c0 7.823 6.277 14.227 14.1 14.304 3.027.03 5.915-.891 8.231-2.484 3.674-2.526 6.146-6.743 6.146-11.541v-7.41c0-7.823-6.273-14.225-14.1-14.302h-.142C6.482.71.007 6.958.007 14.732z" id="g"/><path d="M.007 14.733v7.41c0 7.823 6.277 14.227 14.1 14.304 3.027.03 5.915-.891 8.231-2.484 3.674-2.526 6.146-6.743 6.146-11.541v-7.41c0-7.823-6.273-14.225-14.1-14.302h-.142C6.482.71.007 6.958.007 14.732z" id="i"/><path d="M.164 6.049v17.474s5.401 11.826 5.401 11.52c.139.152 5.401-11.52 5.401-11.52V6.049c0-3.251-2.472-5.887-5.4-5.887C2.635.162.163 2.798.163 6.049z" id="k"/><path d="M2.881 3.856L.02 1.564c1.51 3.273 3.265 7.044 3.265 6.869.088.097 2.207-4.499 3.764-7.914" id="m"/><path d="M2.881 3.856L.02 1.564c1.51 3.273 3.265 7.044 3.265 6.869.088.097 2.207-4.499 3.764-7.914L2.881 3.856z" id="o"/></defs><g fill="none" fill-rule="evenodd"><g transform="translate(125.445 .938)"><mask id="b" fill="#fff"><use xlink:href="#a"/></mask><path d="M4.91.284A4.562 4.562 0 0 0 .35 4.846v173.567a4.561 4.561 0 0 0 4.562 4.562h86.537a4.561 4.561 0 0 0 4.562-4.562V4.846A4.562 4.562 0 0 0 91.448.284H4.911zm0 178.13h86.538V4.845H4.911v173.567z" fill="#448AFF" mask="url(#b)"/></g><path d="M3.041 31.326h99.194a3.041 3.041 0 0 0 3.04-3.042V3.801a3.041 3.041 0 0 0-3.04-3.04H3.04A3.041 3.041 0 0 0 0 3.8v24.483a3.041 3.041 0 0 0 3.041 3.042" fill="#E7E7E7"/><path fill="#444" d="M12.645 11.28l3.16 8.395 3.152-8.395h2.46v10.954h-1.896v-3.612l.188-4.83-3.235 8.442h-1.361L11.885 13.8l.188 4.822v3.612h-1.896V11.28zm13.745 9.637c.362 0 .702-.088 1.02-.263a1.76 1.76 0 0 0 .719-.707v-1.535h-.986c-.677 0-1.186.117-1.527.353-.341.236-.512.57-.512 1 0 .352.117.632.35.84.234.207.545.312.937.312zm2.01 1.316c-.08-.155-.151-.409-.211-.76a2.844 2.844 0 0 1-2.137.911c-.818 0-1.484-.233-2.001-.7a2.24 2.24 0 0 1-.775-1.73c0-.868.322-1.533.967-1.998.644-.464 1.566-.696 2.765-.696h1.12v-.534c0-.421-.117-.758-.353-1.011-.235-.254-.594-.38-1.076-.38-.416 0-.757.104-1.023.311a.966.966 0 0 0-.398.794h-1.829c0-.446.148-.864.444-1.252.296-.389.698-.693 1.208-.914a4.233 4.233 0 0 1 1.703-.331c.953 0 1.713.24 2.28.718.567.48.858 1.153.872 2.02v3.672c0 .732.104 1.316.31 1.752v.128h-1.867zm5.214-8.14l.053.94c.602-.726 1.392-1.09 2.37-1.09 1.695 0 2.558.97 2.587 2.911v5.38h-1.827V16.96c0-.517-.112-.9-.335-1.148-.223-.248-.588-.372-1.095-.372-.737 0-1.286.333-1.647 1v5.793h-1.83v-8.14h1.723zm8.616 0l.052.94c.602-.726 1.392-1.09 2.37-1.09 1.695 0 2.558.97 2.588 2.911v5.38h-1.828V16.96c0-.517-.112-.9-.334-1.148-.224-.248-.589-.372-1.095-.372-.738 0-1.287.333-1.648 1v5.793h-1.828v-8.14h1.723zm10.285 1.317c-.502 0-.906.176-1.215.526-.309.351-.506.84-.59 1.467h3.483v-.135c-.04-.612-.204-1.074-.49-1.388-.286-.313-.681-.47-1.188-.47m.218 6.974c-1.159 0-2.098-.365-2.818-1.095-.72-.73-1.08-1.701-1.08-2.915v-.226c0-.812.157-1.538.471-2.178a3.577 3.577 0 0 1 1.32-1.493 3.495 3.495 0 0 1 1.896-.534c1.109 0 1.965.353 2.57 1.06.604.708.906 1.709.906 3.002v.738h-5.32c.056.672.28 1.203.674 1.594.394.392.89.587 1.487.587.837 0 1.519-.338 2.046-1.016l.986.94a3.303 3.303 0 0 1-1.306 1.134c-.545.268-1.155.402-1.832.402m6.216-4.131c0 .833.164 1.487.492 1.96.329.474.784.711 1.366.711.722 0 1.259-.308 1.61-.925v-3.702c-.351-.591-.884-.887-1.595-.887-.583 0-1.04.233-1.373.7-.334.466-.5 1.18-.5 2.143m-1.829-.158c0-1.273.291-2.284.873-3.03.581-.748 1.37-1.122 2.362-1.122.908 0 1.628.318 2.16.955l.105-.805h1.625v11.27h-1.828v-3.821c-.532.56-1.224.842-2.076.842-.974 0-1.754-.38-2.34-1.14-.587-.76-.88-1.809-.88-3.149m14.069 3.341c-.537.632-1.299.948-2.287.948-.883 0-1.551-.258-2.005-.775-.454-.517-.681-1.264-.681-2.242v-5.274h1.828v5.251c0 1.034.43 1.55 1.287 1.55.888 0 1.487-.318 1.798-.955v-5.846h1.828v8.14h-1.723l-.045-.797zm3.793.797h1.828v-8.14h-1.828v8.14zm-.114-10.253a.97.97 0 0 1 .268-.7c.178-.186.433-.279.763-.279.331 0 .587.093.768.278.18.186.27.42.27.7 0 .276-.09.505-.27.689-.18.183-.437.274-.768.274-.33 0-.585-.091-.763-.274a.946.946 0 0 1-.267-.688zm5.675 2.113l.052.94c.602-.726 1.392-1.09 2.37-1.09 1.695 0 2.558.97 2.588 2.911v5.38h-1.828V16.96c0-.517-.112-.9-.334-1.148-.224-.248-.589-.372-1.095-.372-.738 0-1.287.333-1.648 1v5.793h-1.828v-8.14h1.723z"/><path d="M3.041 69.535h99.194a3.041 3.041 0 0 0 3.04-3.04V42.01a3.041 3.041 0 0 0-3.04-3.041H3.04A3.041 3.041 0 0 0 0 42.01v24.483a3.041 3.041 0 0 0 3.041 3.041" fill="#E7E7E7"/><path d="M15.902 57.621c0-.48-.17-.852-.507-1.113-.339-.26-.95-.524-1.833-.79-.882-.266-1.584-.561-2.106-.887-.998-.628-1.497-1.445-1.497-2.453 0-.883.36-1.61 1.08-2.182.72-.572 1.654-.858 2.802-.858.762 0 1.442.14 2.039.421a3.353 3.353 0 0 1 1.407 1.2c.34.52.512 1.095.512 1.728h-1.897c0-.572-.179-1.02-.538-1.344-.358-.323-.871-.485-1.538-.485-.622 0-1.105.133-1.448.398-.344.267-.516.638-.516 1.114 0 .402.186.737.557 1.005.37.268.983.529 1.836.782.852.253 1.536.542 2.053.865.517.324.896.695 1.136 1.114.241.419.361.91.361 1.47 0 .913-.35 1.64-1.049 2.178-.7.54-1.649.81-2.848.81-.792 0-1.52-.147-2.185-.44-.664-.294-1.181-.699-1.55-1.216s-.553-1.118-.553-1.805h1.904c0 .622.205 1.103.617 1.444.41.341 1 .512 1.767.512.663 0 1.16-.135 1.494-.403a1.3 1.3 0 0 0 .5-1.065m5.734-7.297v1.979h1.437v1.354h-1.437V58.2c0 .311.062.535.185.674.122.137.342.206.657.206.211 0 .425-.025.64-.076v1.415a4.49 4.49 0 0 1-1.204.173c-1.404 0-2.106-.775-2.106-2.324v-4.612h-1.34v-1.354h1.34v-1.98h1.828zm5.734 8.802c.361 0 .701-.087 1.02-.263a1.76 1.76 0 0 0 .718-.707V56.62h-.985c-.678 0-1.187.118-1.528.353-.341.236-.511.57-.511 1.001 0 .351.116.631.35.839.233.208.544.312.936.312zm2.009 1.317c-.08-.156-.15-.41-.21-.76a2.844 2.844 0 0 1-2.137.91c-.818 0-1.485-.233-2.002-.7a2.24 2.24 0 0 1-.775-1.73c0-.868.323-1.533.967-1.997.644-.464 1.566-.696 2.765-.696h1.121v-.535c0-.42-.118-.758-.354-1.01-.235-.255-.594-.38-1.075-.38-.417 0-.758.103-1.024.31a.966.966 0 0 0-.398.795h-1.828c0-.447.147-.864.444-1.253.295-.388.697-.693 1.207-.913a4.233 4.233 0 0 1 1.704-.332c.952 0 1.713.24 2.279.719.567.478.858 1.152.873 2.02v3.67c0 .733.103 1.318.308 1.753v.129H29.38zm5.809-10.119v1.979h1.437v1.354h-1.437V58.2c0 .311.061.535.185.674.122.137.342.206.657.206.21 0 .424-.025.64-.076v1.415a4.49 4.49 0 0 1-1.204.173c-1.404 0-2.107-.775-2.107-2.324v-4.612H32.02v-1.354h1.34v-1.98h1.828zm7.81 9.321c-.537.632-1.299.948-2.287.948-.883 0-1.55-.258-2.005-.774-.454-.517-.681-1.265-.681-2.242v-5.274h1.828v5.25c0 1.034.43 1.551 1.287 1.551.888 0 1.487-.318 1.798-.956v-5.845h1.828v8.14h-1.722l-.046-.798zm7.042-6.025c-.5 0-.905.175-1.214.525-.309.352-.506.841-.59 1.468h3.483v-.136c-.04-.612-.204-1.074-.49-1.388-.286-.313-.681-.47-1.188-.47m.218 6.974c-1.159 0-2.097-.365-2.817-1.095-.72-.73-1.08-1.701-1.08-2.914v-.226c0-.813.157-1.54.47-2.178a3.577 3.577 0 0 1 1.32-1.494 3.495 3.495 0 0 1 1.897-.534c1.108 0 1.964.353 2.568 1.06.605.708.908 1.709.908 3.003v.737h-5.32c.055.672.28 1.204.673 1.595.394.391.89.587 1.487.587.837 0 1.519-.339 2.046-1.016l.986.94a3.303 3.303 0 0 1-1.306 1.133c-.545.268-1.154.402-1.832.402" fill="#444"/><g transform="translate(0 76.966)"><mask id="d" fill="#fff"><use xlink:href="#c"/></mask><path d="M3.427.214C1.535.214 0 1.575 0 3.255V27.74c0 1.678 1.535 3.04 3.427 3.04H125.51c1.894 0 3.428-1.362 3.428-3.04V3.255c0-1.68-1.534-3.041-3.428-3.041H3.427z" fill="#448AFF" mask="url(#d)"/></g><path fill="#FFF" d="M18.874 98.652h-1.896v-4.86H12.08v4.86h-1.903V87.698h1.903v4.56h4.898v-4.56h1.896zm7.05-.797c-.537.632-1.298.948-2.287.948-.882 0-1.55-.258-2.005-.775-.454-.517-.68-1.264-.68-2.242v-5.274h1.828v5.252c0 1.033.428 1.55 1.286 1.55.888 0 1.487-.319 1.798-.956v-5.846h1.829v8.14H25.97l-.046-.797zm5.396-7.343l.052.85c.572-.667 1.355-1 2.348-1 1.088 0 1.833.416 2.235 1.249.591-.833 1.424-1.25 2.497-1.25.898 0 1.565.25 2.005.746.439.496.663 1.228.674 2.196v5.35h-1.829v-5.297c0-.517-.112-.895-.338-1.135-.226-.241-.6-.362-1.122-.362-.416 0-.755.111-1.02.335a1.768 1.768 0 0 0-.552.877l.008 5.581H34.45v-5.356c-.026-.958-.515-1.437-1.467-1.437-.732 0-1.252.298-1.557.895v5.898h-1.829v-8.14h1.723zm14.588 6.824c.362 0 .701-.088 1.02-.263a1.76 1.76 0 0 0 .718-.707V94.83h-.985c-.677 0-1.187.117-1.527.353-.342.236-.512.57-.512 1 0 .352.116.632.35.84.233.208.545.312.936.312zm2.009 1.317c-.08-.156-.15-.41-.21-.76a2.844 2.844 0 0 1-2.137.91c-.818 0-1.485-.233-2.002-.7a2.24 2.24 0 0 1-.774-1.73c0-.868.322-1.533.967-1.998.644-.464 1.566-.695 2.765-.695h1.12v-.535c0-.421-.117-.758-.353-1.011-.236-.254-.595-.38-1.076-.38-.417 0-.757.104-1.023.312a.966.966 0 0 0-.399.793h-1.828c0-.446.147-.863.444-1.252.296-.388.698-.693 1.207-.914a4.233 4.233 0 0 1 1.704-.331c.953 0 1.713.24 2.28.718.566.48.858 1.153.872 2.02v3.672c0 .732.103 1.316.309 1.752v.129h-1.866zm5.215-8.141l.052.94c.602-.726 1.392-1.09 2.37-1.09 1.695 0 2.558.97 2.588 2.912v5.378h-1.828V93.38c0-.517-.112-.9-.334-1.148-.224-.248-.589-.372-1.095-.372-.738 0-1.286.333-1.648 1v5.793H51.41v-8.14h1.723z"/><path d="M3.041 145.955h99.194a3.041 3.041 0 0 0 3.04-3.042V118.43a3.041 3.041 0 0 0-3.04-3.04H3.04A3.041 3.041 0 0 0 0 118.43v24.483a3.041 3.041 0 0 0 3.041 3.042" fill="#E7E7E7"/><path d="M12.08 127.443v7.9h1.242c.998 0 1.764-.313 2.299-.937.533-.625.805-1.52.815-2.69v-.61c0-1.187-.257-2.095-.774-2.722-.517-.627-1.267-.94-2.25-.94H12.08zm-1.903 9.42v-10.955h3.235c.968 0 1.827.216 2.577.648a4.415 4.415 0 0 1 1.741 1.835c.412.792.618 1.7.618 2.723v.55c0 1.038-.207 1.951-.622 2.738a4.357 4.357 0 0 1-1.767 1.82c-.765.427-1.642.64-2.63.64h-3.152zm11.422-3.988c0 .838.173 1.493.519 1.967.346.474.827.711 1.444.711s1.097-.24 1.441-.722c.343-.482.515-1.186.515-2.114 0-.823-.177-1.474-.53-1.956-.354-.482-.834-.722-1.44-.722-.598 0-1.072.236-1.423.71-.352.475-.526 1.183-.526 2.126zm-1.829-.158c0-.798.158-1.516.474-2.156a3.46 3.46 0 0 1 1.332-1.474c.571-.343 1.228-.515 1.971-.515 1.098 0 1.99.353 2.675 1.06.684.707 1.054 1.645 1.109 2.814l.008.429c0 .803-.155 1.52-.463 2.151a3.418 3.418 0 0 1-1.324 1.468c-.575.346-1.238.518-1.99.518-1.148 0-2.068-.382-2.757-1.146-.69-.765-1.035-1.785-1.035-3.059v-.09zm10.662.173c0 .817.166 1.46.5 1.93.334.469.797.703 1.388.703.738 0 1.284-.316 1.64-.948v-3.581c-.346-.617-.887-.925-1.625-.925-.601 0-1.069.238-1.403.714-.334.477-.5 1.179-.5 2.107m-1.82-.158c0-1.264.296-2.273.89-3.028.595-.755 1.384-1.132 2.367-1.132.927 0 1.657.323 2.19.97l.082-.82h1.648v7.892c0 1.068-.333 1.911-.998 2.528-.664.616-1.56.925-2.689.925a4.33 4.33 0 0 1-1.75-.373c-.569-.247-1-.573-1.297-.973l.865-1.099c.562.668 1.255 1 2.077 1 .606 0 1.085-.164 1.437-.492.35-.329.526-.811.526-1.448v-.55c-.526.588-1.228.88-2.106.88-.953 0-1.731-.378-2.336-1.136-.604-.757-.907-1.805-.907-3.144" fill="#444"/><path d="M3.041 184.164h99.194a3.041 3.041 0 0 0 3.04-3.04V156.64a3.041 3.041 0 0 0-3.04-3.041H3.04A3.041 3.041 0 0 0 0 156.64v24.483a3.041 3.041 0 0 0 3.041 3.041" fill="#E7E7E7"/><path d="M12.08 170.129v3.423h2.114c.597 0 1.064-.148 1.4-.443.336-.296.504-.708.504-1.234 0-1.14-.582-1.72-1.746-1.746h-2.271zm0-1.399h1.866c.592 0 1.055-.134 1.389-.403.333-.268.5-.648.5-1.14 0-.542-.154-.932-.463-1.173-.309-.24-.789-.361-1.44-.361H12.08v3.077zm-1.903 6.342v-10.954h3.754c1.239 0 2.182.248 2.83.745.646.497.97 1.237.97 2.22 0 .5-.136.952-.407 1.353-.27.401-.666.712-1.189.933.592.16 1.05.463 1.374.907.323.444.485.977.485 1.599 0 1.027-.33 1.817-.989 2.37-.66.551-1.604.827-2.833.827h-3.995zm12.956-6.824c-.502 0-.906.176-1.215.526-.308.352-.505.841-.59 1.468h3.483v-.136c-.04-.612-.204-1.074-.49-1.388-.285-.313-.68-.47-1.188-.47m.218 6.974c-1.158 0-2.097-.365-2.817-1.094-.72-.73-1.08-1.702-1.08-2.915v-.226c0-.813.157-1.539.47-2.178a3.577 3.577 0 0 1 1.32-1.494 3.495 3.495 0 0 1 1.897-.534c1.108 0 1.964.354 2.569 1.06.604.708.907 1.709.907 3.003v.737h-5.32c.056.672.28 1.204.674 1.595s.89.587 1.486.587c.837 0 1.52-.339 2.046-1.016l.986.94a3.303 3.303 0 0 1-1.305 1.133c-.545.269-1.155.402-1.833.402m6.426-8.29l.053.94c.602-.727 1.392-1.09 2.37-1.09 1.695 0 2.558.97 2.588 2.91v5.38H32.96v-5.273c0-.517-.112-.9-.335-1.148-.223-.248-.588-.373-1.094-.373-.738 0-1.287.334-1.648 1v5.794h-1.828v-8.14h1.722zm10.263 6.831c.457 0 .836-.133 1.136-.398.301-.267.461-.595.481-.987h1.724c-.02.508-.178.98-.474 1.418-.296.44-.697.787-1.204 1.043a3.59 3.59 0 0 1-1.64.383c-1.139 0-2.041-.368-2.709-1.106-.667-.737-1-1.755-1-3.054v-.188c0-1.239.331-2.23.993-2.976.662-.744 1.565-1.117 2.708-1.117.968 0 1.757.282 2.366.846.61.565.93 1.306.96 2.224h-1.724c-.02-.467-.179-.85-.477-1.152-.298-.3-.678-.45-1.14-.45-.591 0-1.048.213-1.37.643-.32.429-.483 1.08-.488 1.952v.293c0 .883.159 1.541.478 1.975.318.433.778.65 1.38.65m6.57-5.942c.596-.693 1.351-1.039 2.264-1.039 1.735 0 2.615.99 2.64 2.972v5.319h-1.828v-5.251c0-.562-.122-.96-.365-1.193-.243-.233-.6-.35-1.072-.35-.732 0-1.279.326-1.64.979v5.815h-1.828v-11.556h1.828v4.304z" fill="#444"/><path d="M148.518 111.412c.776 4.695 3.48 7.557 8.553 6.984 1.733-.196 2.676-1.075 2.464-1.65-.541-1.478-1.573-.247-4.88-.799-1.532-.254-2.376-2.53-2.234-3.477.142-.947 1.47-1.237 2.21-1.367 1.661-.292.418 4.347 2.554 3.92 2.553-.51 0-7.019-1.468-9.175l-7.772 1.077c.134 1.315.365 3.23.573 4.487" fill="#F6CFB5"/><path d="M157.059 114.3c-.522.094-.885-.04-1.135-.247.19.652.512 1.32 1.26 1.225 1.012-.128 1.058-1.09 1.079-2.022-.151.451-.478.911-1.204 1.043m39.675-2.887c-.776 4.695-3.48 7.557-8.553 6.984-1.733-.196-2.676-1.075-2.464-1.65.541-1.478 1.574-.247 4.88-.799 1.532-.254 2.376-2.53 2.234-3.477-.142-.947-1.47-1.237-2.21-1.367-1.66-.292-.418 4.347-2.554 3.92-2.552-.51 0-7.019 1.468-9.175l7.772 1.077c-.134 1.315-.365 3.23-.573 4.487" fill="#F6CFB5"/><path d="M188.194 114.3c.521.094.884-.04 1.134-.247-.19.652-.512 1.32-1.26 1.225-1.012-.128-1.057-1.09-1.079-2.022.152.451.478.911 1.205 1.043" fill="#F6CFB5"/><path d="M181.173 156.378v12.766h20.27s2.77-5.279-2.508-5.279c-8.102 0-8.968-7.487-8.968-7.487h-8.794zm-12.766 0v12.766H155.2s-.45-4.46.982-4.46c3.273 0 2.797-8.306 2.797-8.306h9.428z" fill="#DFDFDF"/><path d="M193.956 168.161c0-2.946 2.39-4.173 5.34-4.173 2.948 0 5.339 1.227 5.339 4.173h-10.68zm-40.556 0c0-2.946 2.625-4.173 5.864-4.173s5.866 1.227 5.866 4.173H153.4z" fill="#DFDFDF"/><path fill="#CED7DB" d="M181.173 169.143h23.566v-.982h-23.566zm-27.496 0h14.73v-.982h-14.73z"/><path fill="#747474" d="M170.516 159.504l-13.747-.05.22-60.39 13.747.05zm8.93.948l-7.35-60.534 13.648-1.658 7.35 60.535z"/><path d="M170.626 112.467c0-2.585 2.807-2.776 3.108-.096.341 3.086 5.785-.17 5.785-.17l-2.383-12.538-10.38-.512-.682 13.901 4.552-.585z" fill="#747474"/><path fill="#FFE082" d="M156.624 100.406h29.458V63.092h-29.458z"/><path d="M146.995 108.912c-1.517-9.941-1.432-19.644.245-28.058 1.545-7.754 4.418-14.157 8.09-18.029 3.5-3.692 9.864-7.628 17.244-7.628h.065c5.722.019 10.972 2.406 15.184 6.905.115.123 11.52 13.282 9.911 46.553l-9.808-.475c1.301-26.894-6.64-38.463-7.403-39.507-2.319-2.417-4.98-3.647-7.915-3.656h-.035c-4.274 0-8.119 2.456-10.119 4.564-7.284 7.683-7.43 26.845-5.752 37.851l-9.707 1.48z" fill="#FFE082"/><path d="M172.825 70.194c0 .305-5.4-11.52-5.4-11.52V41.198c0-3.25 2.472-5.887 5.4-5.887 2.929 0 5.401 2.637 5.401 5.887v17.474s-5.262 11.673-5.4 11.52" fill="#F6CFB5"/><path d="M185.1 39.326c0 4.799-2.471 9.015-6.145 11.54-2.317 1.594-5.205 2.514-8.23 2.485-7.825-.077-14.101-6.48-14.101-14.303v-7.41c0-7.823 6.554-14.1 14.376-14.025 7.827.077 14.1 6.48 14.1 14.303v7.41z" fill="#FFDBC2"/><path d="M174.945 32.567a.365.365 0 0 1-.232-.082c-.083-.068-2.076-1.65-4.456-.472a.368.368 0 0 1-.327-.66c2.816-1.393 5.151.481 5.25.562a.368.368 0 0 1-.235.652" fill="#E1B562"/><g><g transform="translate(156.616 16.904)"><mask id="f" fill="#fff"><use xlink:href="#e"/></mask><path d="M5.085 4.12s-1.657 6.77 2.946 11.7c2.51 2.688-.304 5.59-1.82 7.264-.89.981-.606 1.99.664 2.178 1.864.277 3.344.522 3.344.522-1.636 1.985-3.742 6.403-2.024 10.004 1.253 2.624-8.92-3.764-8.92-12.193 0-9.656-.982-17.675 5.81-19.475" fill="#F6CFB5" mask="url(#f)"/></g><g transform="translate(156.616 16.904)"><mask id="h" fill="#fff"><use xlink:href="#g"/></mask><path d="M.027 31.66c5.932-7.61 14.07-7.151 19.945-1.986 1.35 1.186 2.62.153 2.62-1.606V21.64h2.331v19.639H-.79l.818-9.618z" fill="#ECC3A9" mask="url(#h)"/></g><g transform="translate(156.616 16.904)"><mask id="j" fill="#fff"><use xlink:href="#i"/></mask><path fill="#C49867" mask="url(#j)" d="M22.592 7.034v14.605h10.801V6.543z"/></g></g><g><path d="M188.66 37.885a3.562 3.562 0 0 1-3.596 3.523 3.559 3.559 0 0 1-3.523-3.593 3.562 3.562 0 0 1 3.593-3.527 3.563 3.563 0 0 1 3.527 3.597" fill="#FFDBC2"/><path d="M174.004 36.459a.37.37 0 0 1-.35-.255 1.679 1.679 0 0 0-1.578-1.164h-.016c-.712 0-1.347.453-1.582 1.132a.369.369 0 0 1-.696-.24 2.41 2.41 0 0 1 2.278-1.628h.023c1.037.01 1.95.683 2.271 1.673a.368.368 0 0 1-.35.482m-10.249-.102a.367.367 0 0 1-.35-.255 1.677 1.677 0 0 0-1.578-1.161l-.018-.001a1.67 1.67 0 0 0-1.58 1.131.368.368 0 1 1-.696-.24 2.405 2.405 0 0 1 2.275-1.627h.026a2.41 2.41 0 0 1 2.27 1.67.368.368 0 0 1-.35.483" fill="#414141"/><path d="M167.033 47.646a5.108 5.108 0 0 1-3.794-1.677.368.368 0 1 1 .541-.499 4.382 4.382 0 0 0 3.253 1.439 4.385 4.385 0 0 0 3.254-1.439.367.367 0 1 1 .542.5 5.115 5.115 0 0 1-3.796 1.676" fill="#EF9A9A"/><path d="M184.178 26.76h-25.47c-9.451 0-7.206-9.36-3.156-9.36 0 0 .654 2.138 4.261 1.461 3.609-.676 4.037-1.783 9.922-1.783 11.926 0 14.443 9.682 14.443 9.682" fill="#C49867"/><path d="M159.292 32.568a.369.369 0 0 1-.233-.653c.098-.08 2.434-1.953 5.248-.563a.369.369 0 0 1-.326.66c-2.393-1.183-4.436.456-4.455.472a.367.367 0 0 1-.234.084" fill="#E1B562"/></g><g transform="translate(167.26 35.15)"><mask id="l" fill="#fff"><use xlink:href="#k"/></mask><path fill="#AFBDC4" mask="url(#l)" d="M16.9 21.068L5.162 30.466l-11.738-9.398h-4.06v33.386h32.404V21.068z"/></g><g transform="translate(169.541 61.76)"><mask id="n" fill="#fff"><use xlink:href="#m"/></mask><path d="M3.285 2.314v11.783" fill="#EDEDED" mask="url(#n)"/><mask id="p" fill="#fff"><use xlink:href="#o"/></mask><path fill="#8FA3AD" mask="url(#p)" d="M2.793 14.098h.983V2.314h-.983z"/></g><g><path d="M172.4 76.476a.985.985 0 0 0-.207.037l.17.596.077-.03-.04-.603zm.011 1.97c-.596 0-.858-.537-1.232-1.303a123.58 123.58 0 0 1-.95-2.006 778.39 778.39 0 0 1-2.778-6.062c-2-4.408-3.98-8.822-3.98-8.822a.983.983 0 0 1 1.792-.803c2.26 5.042 5.68 12.604 7.222 15.875 1.55-3.245 4.953-10.837 7.18-15.87a.981.981 0 1 1 1.797.794c-7.81 17.654-8.132 18.05-8.792 18.164l-.003.004c-.092.02-.177.03-.256.03z" fill="#00E5FF"/><path fill="#AFBDC4" d="M162.85 64.004l4.835-2.376-1.197-6.203-1.64.391z"/><path d="M165.659 56.632l-1.357 5.565 2.277-1.12-.86-4.46-.06.015zm-2.809 8.354a.981.981 0 0 1-.954-1.214l1.998-8.188a.984.984 0 0 1 .726-.723l1.64-.391a.978.978 0 0 1 1.192.769l1.198 6.203a.982.982 0 0 1-.532 1.067l-4.835 2.376a.976.976 0 0 1-.433.101zm18.91-.982l-4.638-2.376 1-6.203 1.641.391z" fill="#AFBDC4"/><path d="M178.205 61.08l2.093 1.072-1.375-5.526-.718 4.454zm3.556 3.906a.97.97 0 0 1-.448-.108l-4.639-2.376a.98.98 0 0 1-.521-1.03l1-6.203a.98.98 0 0 1 1.197-.8l1.641.392a.982.982 0 0 1 .727.723l1.997 8.188a.983.983 0 0 1-.954 1.214z" fill="#AFBDC4"/><path d="M146.469 105.771a.983.983 0 0 1-.141-1.954l9.454-1.379a.982.982 0 1 1 .284 1.943l-9.454 1.38a.992.992 0 0 1-.143.01m51.48-.16h-.027l-9.551-.254a.981.981 0 1 1 .052-1.963l9.551.253a.982.982 0 0 1-.025 1.964" fill="#00E5FF"/><path fill="#444" opacity=".5" d="M6.569 170.688h91.063v-1.52H6.57zm0-37.132h91.063v-1.52H6.57zm0-76.482h91.453v-1.52H6.57zm0-38.795h91.453v-1.521H6.57z"/></g></g></svg>