<svg width="328" height="198" viewBox="0 0 328 198" xmlns="http://www.w3.org/2000/svg" xmlns:xlink="http://www.w3.org/1999/xlink"><title>Graphic1-AutoML@3x</title><defs><path d="M.193 3.004a2.703 2.703 0 1 0 5.407 0 2.703 2.703 0 0 0-5.407 0" id="a"/><path d="M.53 3.004a2.703 2.703 0 1 0 5.406 0 2.703 2.703 0 0 0-5.406 0" id="c"/><path d="M.193 2.95a2.704 2.704 0 1 0 5.408 0 2.704 2.704 0 0 0-5.408 0" id="e"/><path d="M.53 2.95a2.703 2.703 0 1 0 5.407 0 2.703 2.703 0 0 0-5.407 0" id="g"/><path d="M.317 3.482a2.704 2.704 0 1 0 5.407-.002 2.704 2.704 0 0 0-5.407.002" id="i"/><path d="M.654 3.428a2.703 2.703 0 1 0 5.407 0 2.703 2.703 0 0 0-5.407 0" id="k"/><path d="M.654 3.482a2.703 2.703 0 1 0 5.407-.001 2.703 2.703 0 0 0-5.407.001" id="m"/><path d="M.317 3.428a2.704 2.704 0 1 0 5.408 0 2.704 2.704 0 0 0-5.408 0" id="o"/><path d="M.13 3.152a2.704 2.704 0 1 0 5.407 0 2.704 2.704 0 0 0-5.408 0" id="q"/><path d="M.13 3.099a2.703 2.703 0 1 0 5.405-.001 2.703 2.703 0 0 0-5.406 0" id="s"/><path id="u" d="M.608.714h21.559v5.794H.608z"/><path d="M.467 3.152a2.703 2.703 0 1 0 5.406 0 2.703 2.703 0 0 0-5.406 0" id="w"/><path d="M.467 3.099a2.702 2.702 0 1 0 5.404 0 2.702 2.702 0 0 0-5.404 0" id="y"/><path d="M.755 3.152a2.703 2.703 0 1 0 5.405.001 2.703 2.703 0 0 0-5.405 0" id="A"/><path d="M.307 3.099a2.703 2.703 0 1 0 5.405 0 2.703 2.703 0 0 0-5.405 0" id="C"/><path d="M.755 3.099a2.703 2.703 0 1 0 5.407 0 2.703 2.703 0 0 0-5.407 0" id="E"/><path d="M.307 3.152a2.703 2.703 0 1 0 5.407 0 2.703 2.703 0 0 0-5.407 0" id="G"/></defs><g fill="none" fill-rule="evenodd"><path d="M327.536 108.149c-.273-6.071-5.265-10.912-11.4-10.912-1.179 0-2.312.177-3.379.507.049-.469.073-.944.073-1.422 0-7.905-6.405-14.31-14.31-14.31-.95 0-1.878.095-2.775.275.469-2.284.717-4.65.717-7.074 0-19.274-15.626-34.896-34.9-34.896a34.75 34.75 0 0 0-18.014 5.004C233.427 19.263 208.118.784 178.483.784c-38.546 0-69.794 31.249-69.794 69.796 0 3.151.228 6.246.631 9.288a26.381 26.381 0 0 0-7.326-1.038c-7.946 0-15.069 3.518-19.91 9.076-5.671-11.597-17.581-19.587-31.362-19.587-17.603 0-32.153 13.033-34.545 29.973a11.345 11.345 0 0 0-4.776-1.055c-6.136 0-11.128 4.84-11.401 10.912h327.536z" fill="#E7E7E7"/><path d="M243.111 139.23H69.702a3.139 3.139 0 0 1-3.139-3.138V26.87a3.139 3.139 0 0 1 3.14-3.14H243.11a3.139 3.139 0 0 1 3.139 3.14v109.222a3.139 3.139 0 0 1-3.139 3.139" fill="#BCBEC0"/><path d="M248.177 139.23H74.767a3.138 3.138 0 0 1-3.138-3.138V26.87a3.138 3.138 0 0 1 3.138-3.14h173.41a3.139 3.139 0 0 1 3.138 3.14v109.222a3.139 3.139 0 0 1-3.138 3.139" fill="#D1D3D4"/><path d="M242.886 133.912H80.726a3.139 3.139 0 0 1-3.138-3.139V32.27a3.139 3.139 0 0 1 3.138-3.139h162.16a3.139 3.139 0 0 1 3.14 3.139v98.503a3.139 3.139 0 0 1-3.14 3.14" fill="#F5F5F5"/><path fill="#A7A9AC" d="M66.57 134.109h180.311v-6.662H66.571z"/><path d="M210.443 120.524h-26.594c-.915 0-1.663.748-1.663 1.662v4.206c0 .914.748 1.662 1.663 1.662h26.594c.915 0 1.663-.748 1.663-1.662v-4.206c0-.914-.748-1.662-1.663-1.662" fill="#444"/><path fill="#BCBEC0" d="M81.914 134.109h177.385v-6.662H81.914z"/><path d="M155.81 127.52h-22.57a.785.785 0 0 1-.785-.785v-2.664c0-.434.351-.785.784-.785h22.57v4.234z" fill="#C4D9F0"/><path d="M161.285 127.52h-5.68v-4.234l4.367-.458a1.19 1.19 0 0 1 1.313 1.183v3.51z" fill="#0081F1"/><path d="M176.729 197.604h18.007c.147 0 .265-.272.265-.609v-28.541c0-.337-.118-.609-.265-.609h-18.007c-.146 0-.265.272-.265.609v28.541c0 .337.119.61.265.61" fill="#6BF"/><path d="M194.446 197.594h41.438a.608.608 0 0 0 .608-.609v-28.541a.608.608 0 0 0-.608-.61h-41.438a.608.608 0 0 0-.608.61v28.541c0 .337.272.609.608.609" fill="#C4D9F0"/><path d="M202.093 191.266a1.177 1.177 0 0 1-.547-2.219l26.253-13.806a1.178 1.178 0 0 1 1.096 2.084l-21.847 11.489 21.254-.421c.663-.04 1.187.503 1.2 1.153a1.177 1.177 0 0 1-1.153 1.2l-26.232.52h-.024" fill="#6BF"/><path d="M202.094 190.746c-.65 0-1.177-.526-1.177-1.177v-13.286a1.176 1.176 0 1 1 2.354 0v13.286c0 .65-.527 1.177-1.177 1.177" fill="#6BF"/><g transform="translate(199.197 173.279)"><mask id="b" fill="#fff"><use xlink:href="#a"/></mask><path d="M.193 3.004a2.703 2.703 0 1 0 5.407 0 2.703 2.703 0 0 0-5.407 0" fill="#4285F4" mask="url(#b)"/></g><g transform="translate(225.092 173.279)"><mask id="d" fill="#fff"><use xlink:href="#c"/></mask><path d="M.53 3.004a2.703 2.703 0 1 0 5.406 0 2.703 2.703 0 0 0-5.406 0" fill="#4285F4" mask="url(#d)"/></g><g transform="translate(199.197 186.619)"><mask id="f" fill="#fff"><use xlink:href="#e"/></mask><path d="M.193 2.95a2.704 2.704 0 1 0 5.408 0 2.704 2.704 0 0 0-5.408 0" fill="#4285F4" mask="url(#f)"/></g><g transform="translate(225.092 186.619)"><mask id="h" fill="#fff"><use xlink:href="#g"/></mask><path d="M.53 2.95a2.703 2.703 0 1 0 5.407 0 2.703 2.703 0 0 0-5.407 0" fill="#4285F4" mask="url(#h)"/></g><path fill="#E7E7E7" d="M193.414 160.806h43.522v-5.794h-43.522z"/><path fill="#4285F4" d="M193.413 160.806h8.575v-5.795h-8.575z"/><path d="M95.245 197.297h18.007c.147 0 .266-.272.266-.609v-28.541c0-.337-.119-.609-.266-.609H95.245c-.146 0-.264.272-.264.609v28.541c0 .337.118.61.264.61" fill="#6BF"/><path d="M112.963 197.287H154.4a.608.608 0 0 0 .609-.609v-28.541a.608.608 0 0 0-.609-.61h-41.437a.608.608 0 0 0-.609.61v28.541c0 .337.272.61.609.61" fill="#C4D9F0"/><path d="M146.841 190.44c-.179 0-.36-.041-.531-.127l-26.231-13.287a1.177 1.177 0 0 1 .53-2.227h26.254a1.176 1.176 0 1 1 0 2.354H125.54l21.835 11.059a1.177 1.177 0 0 1-.533 2.228" fill="#6BF"/><path d="M120.61 190.44c-.65 0-1.177-.527-1.177-1.178v-13.286a1.177 1.177 0 1 1 2.354 0v13.286c0 .65-.526 1.177-1.177 1.177" fill="#6BF"/><g transform="translate(117.59 172.494)"><mask id="j" fill="#fff"><use xlink:href="#i"/></mask><path d="M.317 3.482a2.704 2.704 0 1 0 5.407-.002 2.704 2.704 0 0 0-5.407.002" fill="#4285F4" mask="url(#j)"/></g><g transform="translate(143.485 185.834)"><mask id="l" fill="#fff"><use xlink:href="#k"/></mask><path d="M.654 3.428a2.703 2.703 0 1 0 5.407 0 2.703 2.703 0 0 0-5.407 0" fill="#4285F4" mask="url(#l)"/></g><path fill="#4285F4" d="M112.405 160.5h43.522v-5.795h-43.522z"/><path d="M120.61 190.44a1.177 1.177 0 0 1-.532-2.228l26.232-13.286a1.178 1.178 0 0 1 1.063 2.1l-26.231 13.287a1.175 1.175 0 0 1-.531.127" fill="#6BF"/><g transform="translate(143.485 172.494)"><mask id="n" fill="#fff"><use xlink:href="#m"/></mask><path d="M.654 3.482a2.703 2.703 0 1 0 5.407-.001 2.703 2.703 0 0 0-5.407.001" fill="#4285F4" mask="url(#n)"/></g><g transform="translate(117.59 185.834)"><mask id="p" fill="#fff"><use xlink:href="#o"/></mask><path d="M.317 3.428a2.704 2.704 0 1 0 5.408 0 2.704 2.704 0 0 0-5.408 0" fill="#4285F4" mask="url(#p)"/></g><path d="M11.88 196.968h18.008c.147 0 .265-.272.265-.61v-28.54c0-.337-.118-.61-.265-.61H11.881c-.146 0-.265.273-.265.61v28.54c0 .338.119.61.265.61" fill="#6BF"/><path d="M29.599 196.957h41.437a.608.608 0 0 0 .608-.608v-28.542a.608.608 0 0 0-.608-.609H29.599a.608.608 0 0 0-.61.61v28.54c0 .337.273.61.61.61" fill="#C4D9F0"/><path d="M63.477 190.11c-.18 0-.36-.04-.531-.127l-26.232-13.286a1.178 1.178 0 0 1 .531-2.228H63.5a1.177 1.177 0 1 1 0 2.354H42.175l21.835 11.06a1.177 1.177 0 0 1-.533 2.227" fill="#6BF"/><g transform="translate(34.413 172.494)"><mask id="r" fill="#fff"><use xlink:href="#q"/></mask><path d="M.13 3.152a2.704 2.704 0 1 0 5.407 0 2.704 2.704 0 0 0-5.408 0" fill="#4285F4" mask="url(#r)"/></g><g transform="translate(34.413 185.834)"><mask id="t" fill="#fff"><use xlink:href="#s"/></mask><path d="M.13 3.099a2.703 2.703 0 1 0 5.405-.001 2.703 2.703 0 0 0-5.406 0" fill="#4285F4" mask="url(#t)"/></g><path fill="#E7E7E7" d="M27.958 160.17H71.48v-5.794H27.958z"/><g transform="translate(27.35 153.662)"><mask id="v" fill="#fff"><use xlink:href="#u"/></mask><path fill="#4285F4" mask="url(#v)" d="M.608 6.508h21.559V.714H.608z"/></g><path d="M63.478 190.11c-.65 0-1.177-.527-1.177-1.177v-13.287a1.176 1.176 0 1 1 2.354 0v13.287c0 .65-.527 1.177-1.177 1.177" fill="#6BF"/><g transform="translate(60.308 172.494)"><mask id="x" fill="#fff"><use xlink:href="#w"/></mask><path d="M.467 3.152a2.703 2.703 0 1 0 5.406 0 2.703 2.703 0 0 0-5.406 0" fill="#4285F4" mask="url(#x)"/></g><g transform="translate(60.308 185.834)"><mask id="z" fill="#fff"><use xlink:href="#y"/></mask><path d="M.467 3.099a2.702 2.702 0 1 0 5.404 0 2.702 2.702 0 0 0-5.404 0" fill="#4285F4" mask="url(#z)"/></g><path d="M256.544 196.968h18.007c.147 0 .265-.272.265-.61v-28.54c0-.337-.118-.61-.265-.61h-18.007c-.146 0-.264.273-.264.61v28.54c0 .338.118.61.264.61" fill="#6BF"/><path d="M274.262 196.957h41.437a.608.608 0 0 0 .609-.608v-28.542a.608.608 0 0 0-.61-.609h-41.436a.608.608 0 0 0-.61.61v28.54c0 .337.273.61.61.61" fill="#C4D9F0"/><path d="M308.14 190.11c-.18 0-.36-.04-.532-.127l-26.231-13.286a1.178 1.178 0 0 1 .532-2.228h26.253a1.177 1.177 0 0 1 0 2.354h-21.324l21.834 11.06a1.177 1.177 0 0 1-.532 2.227" fill="#6BF"/><g transform="translate(278.451 172.494)"><mask id="B" fill="#fff"><use xlink:href="#A"/></mask><path d="M.755 3.152a2.703 2.703 0 1 0 5.405.001 2.703 2.703 0 0 0-5.405 0" fill="#4285F4" mask="url(#B)"/></g><path fill="#E7E7E7" d="M272.622 160.17h43.522v-5.794h-43.522z"/><path fill="#4285F4" d="M272.622 160.17h36.515v-5.794h-36.515z"/><path d="M308.14 190.11c-.65 0-1.177-.527-1.177-1.177v-13.287a1.176 1.176 0 1 1 2.354 0v13.287c0 .65-.526 1.177-1.177 1.177" fill="#6BF"/><g transform="translate(305.13 185.834)"><mask id="D" fill="#fff"><use xlink:href="#C"/></mask><path d="M.307 3.099a2.703 2.703 0 1 0 5.405 0 2.703 2.703 0 0 0-5.405 0" fill="#4285F4" mask="url(#D)"/></g><path d="M130.512 96.298a1.962 1.962 0 0 1-.947-3.682l53.712-29.483H130.51a1.961 1.961 0 1 1 0-3.923h60.418a1.963 1.963 0 0 1 .944 3.682l-60.418 33.164a1.96 1.96 0 0 1-.942.242" fill="#6BF"/><path d="M190.926 96.298c-.32 0-.643-.078-.942-.242l-57.513-31.57v26.621a1.961 1.961 0 1 1-3.923 0V61.172a1.962 1.962 0 0 1 2.906-1.72l60.418 33.164a1.962 1.962 0 0 1-.946 3.682" fill="#6BF"/><path d="M136.14 61.172a5.631 5.631 0 1 1-11.261 0 5.631 5.631 0 0 1 11.262 0m60.184 0a5.631 5.631 0 1 1-11.262 0 5.631 5.631 0 0 1 11.262 0M136.14 94.325a5.631 5.631 0 1 1-11.261 0 5.631 5.631 0 0 1 11.262 0m60.184 0a5.631 5.631 0 1 1-11.262 0 5.631 5.631 0 0 1 11.262 0" fill="#4285F4"/><path d="M281.91 190.11a1.177 1.177 0 0 1-.533-2.228l26.231-13.286a1.178 1.178 0 0 1 1.064 2.1l-26.231 13.287a1.175 1.175 0 0 1-.531.127" fill="#6BF"/><g transform="translate(278.451 185.834)"><mask id="F" fill="#fff"><use xlink:href="#E"/></mask><path d="M.755 3.099a2.703 2.703 0 1 0 5.407 0 2.703 2.703 0 0 0-5.407 0" fill="#4285F4" mask="url(#F)"/></g><g transform="translate(305.13 172.494)"><mask id="H" fill="#fff"><use xlink:href="#G"/></mask><path d="M.307 3.152a2.703 2.703 0 1 0 5.407 0 2.703 2.703 0 0 0-5.407 0" fill="#4285F4" mask="url(#H)"/></g></g></svg>