<svg viewBox="0 0 712.1 278.9" xmlns="http://www.w3.org/2000/svg"><text fill="#3c4043" font-family="'GoogleSans-Regular'" font-size="16" transform="translate(326.55 13.729)">AutoML</text><text fill="#3c4043" font-family="'GoogleSans-Regular', Arial, sans-serif" font-size="16" transform="translate(12.887 13.729)">Dataset</text><text transform="translate(554.215 13.729)"><tspan fill="#3c4043" font-family="'GoogleSans-Regular', Arial, sans-serif" font-size="16" x="0" y="0">Generate predictions </tspan><tspan fill="#3c4043" font-family="'GoogleSans-Regular', Arial, sans-serif" font-size="16" x="24.4" y="19.2">with a REST API</tspan></text><path d="M301.6 89.1H107.3" fill="none" stroke="#afbdc4" stroke-linecap="square" stroke-miterlimit="10" stroke-width="2"/><path clip-rule="evenodd" d="M308.1 89.1l-6.5 5.7V83.4z" fill="#afbdc4" fill-rule="evenodd"/><path d="M597.6 89.1H403.3" fill="none" stroke="#afbdc4" stroke-linecap="square" stroke-miterlimit="10" stroke-width="2"/><path clip-rule="evenodd" d="M604.1 89.1l-6.5 5.7V83.4z" fill="#afbdc4" fill-rule="evenodd"/><path d="M398.5 85l-18.3-31.8c-1.4-2.5-4-4.1-6.8-4.1h-36.6c-2.8 0-5.4 1.6-6.8 4.1L311.6 85c-1.4 2.5-1.4 5.4 0 7.9l18.3 32c1.4 2.5 4 4.1 6.8 4.2h36.6c2.8-.1 5.4-1.7 6.9-4.2l18.3-31.8c1.5-2.6 1.5-5.7 0-8.1z" fill="#4285f4"/><path d="M365.9 71.5l-5.1 7.5-4.8-5.8-12.3 13.4-9.3 1.4 9.2 14 1.7 4.6 13.9 22.5h14.2c2.8-.1 5.4-1.7 6.9-4.2l13-21z" fill-opacity=".07"/><path d="M346.1 98.6h-.7l-2.5 4.3 2.6 4.6h5.7l-2.5-4.5 2.6-4.5h-5.2zM370.9 81l-2.7 4.7-2.6 4.5-4.8 8.4h-4.3l-2.6 4.3 2.6 4.6h9.3l7.4-13 2.8-4.7zm-16.6-10.5h-9.4l-7.6 13-2.8 4.8v.1l5.1 8.7 2.8-4.9 2.6-4.5 4.8-8.4h3.6l3-5.1zm10.1 8.8h.5l2.6-4.2-2.7-4.6h-5.4l2.4 4.1-2.6 4.3-.1.4h.4z" fill="#fff"/><path d="M226.5 201.6v-28.3h257.1v28.3M355 132.1v69.5" fill="none" stroke="#afbdc4" stroke-linecap="square" stroke-miterlimit="10" stroke-width="2"/><path clip-rule="evenodd" d="M226.6 206.6l-5.8-6.4h11.4zm257.1 0l-5.8-6.4h11.5zm-128.6 0l-5.8-6.4h11.5z" fill="#afbdc4" fill-rule="evenodd"/><path d="M627.2 76.5h-6.1l-12.4 12.4 12.4 12.4h6.1l-12.5-12.4zm12.9 0h6.2l12.4 12.4-12.4 12.4h-6.2l12.6-12.4zm-8 31.1h-4.6l7.7-37.5h4.6z" fill="#4688f1"/><text fill="#3c4043" font-family="'GoogleSans-Regular', Arial, sans-serif" font-size="14" transform="translate(467.09 275.358)">Serve</text><path d="M498.9 230.6c-1.3-6.5-7-11.3-13.8-11.3-5.4 0-10.1 3.1-12.5 7.6-5.6.6-10 5.4-10 11.2 0 6.2 5 11.2 11.2 11.2h24.4c5.2 0 9.4-4.2 9.4-9.4 0-5-3.8-9-8.7-9.3z" fill="#757575"/><text fill="#3c4043" font-family="'GoogleSans-Regular', Arial, sans-serif" font-size="14" transform="translate(210.853 275.358)">Train</text><path d="M245.4 232.1V228H241v-4.9c0-2-1.7-3.7-3.7-3.7h-4.7v-4.1h-4.1v4.1h-4.3v-4.1h-4.1v4.1h-4.7c-2 0-3.7 1.7-3.7 3.7v4.9h-4.2v4.1h4.2v4.3h-4.2v4.1h4.2v4.7c0 2 1.7 3.7 3.7 3.7h4.7v4.3h4.1v-4.3h4.3v4.3h4.1v-4.3h4.7c2 0 3.7-1.7 3.7-3.7v-4.7h4.4v-4.1H241v-4.3zm-8.5 4.3v8.4h-21.1v-21.3h21.1v8.6z" fill="#757575"/><path d="M224.2 227.9h-4.1v12.6h12.5v-12.7h-8.4zm4.3 4.2v4.2h-4.2V232z" fill="#757575"/><text fill="#3c4043" font-family="'GoogleSans-Regular', Arial, sans-serif" font-size="14" transform="translate(332.971 275.358)">Deploy</text><path d="M341.5 222.6c-1.2 0-2.2-1-2.2-2.2s1-2.2 2.2-2.2 2.2 1 2.2 2.2-1 2.2-2.2 2.2zm10.7-6.5h-14c-.6 0-1.1.5-1.1 1.1v6.5c0 .6.5 1.1 1.1 1.1h14c.6 0 1.1-.5 1.1-1.1v-6.5c0-.6-.5-1.1-1.1-1.1zm-10.7 19.2c-1.2 0-2.2-1-2.2-2.2s1-2.2 2.2-2.2 2.2 1 2.2 2.2c0 1.3-1 2.2-2.2 2.2zm10.7-6.5h-14c-.6 0-1.1.5-1.1 1.1v6.5c0 .6.5 1.1 1.1 1.1h14c.6 0 1.1-.5 1.1-1.1v-6.5c0-.6-.5-1.1-1.1-1.1zm-10.7 19.3c-1.2 0-2.2-1-2.2-2.2s1-2.2 2.2-2.2 2.2 1 2.2 2.2-1 2.2-2.2 2.2zm10.7-6.5h-14c-.6 0-1.1.5-1.1 1.1v6.5c0 .6.5 1.1 1.1 1.1h14c.6 0 1.1-.5 1.1-1.1v-6.5c0-.6-.5-1.1-1.1-1.1zm9.4-19c-1.2 0-2.2-1-2.2-2.2s1-2.2 2.2-2.2 2.2 1 2.2 2.2-1 2.2-2.2 2.2zm10.7-6.5h-14c-.6 0-1.1.5-1.1 1.1v6.5c0 .6.5 1.1 1.1 1.1h14c.6 0 1.1-.5 1.1-1.1v-6.5c0-.6-.5-1.1-1.1-1.1zm-10.7 19.2c-1.2 0-2.2-1-2.2-2.2s1-2.2 2.2-2.2 2.2 1 2.2 2.2c-.1 1.3-1 2.2-2.2 2.2zm10.7-6.5h-14c-.6 0-1.1.5-1.1 1.1v6.5c0 .6.5 1.1 1.1 1.1h14c.6 0 1.1-.5 1.1-1.1v-6.5c0-.6-.5-1.1-1.1-1.1zm-10.7 19.3c-1.2 0-2.2-1-2.2-2.2s1-2.2 2.2-2.2 2.2 1 2.2 2.2c-.1 1.2-1 2.2-2.2 2.2zm10.7-6.5h-14c-.6 0-1.1.5-1.1 1.1v6.5c0 .6.5 1.1 1.1 1.1h14c.6 0 1.1-.5 1.1-1.1v-6.5c0-.6-.5-1.1-1.1-1.1z" fill="#757575"/><path d="M69.04 50.04v47h-68v-47z" fill="#34a853"/><path d="M2 51h66v45H2z" fill="#fff"/><path d="M9.6 88.3S16.9 63 29.7 63s6.8 16.7 13.9 16.7 7.7-4 12.2-4S60 88.5 60 88.5s-50.4-.6-50.4-.2z" fill="#34a853"/><circle cx="54" cy="65.2" fill="#34a853" r="6.3"/><path d="M84.796 65.84v47h-68v-47z" fill="#ea4335"/><path d="M17.8 66.9h66v45h-66z" fill="#fff"/><path d="M25.5 104.1s7.3-25.3 20.1-25.3 6.8 16.7 13.9 16.7 7.7-4 12.2-4c4.4 0 4.2 12.8 4.2 12.8s-50.4-.5-50.4-.2z" fill="#ea4335"/><circle cx="69.8" cy="81" fill="#ea4335" r="6.3"/><path d="M100.651 81.74v47h-68v-47z" fill="#fbbc04"/><path d="M33.7 82.7h66v45h-66z" fill="#fff"/><path d="M41.3 119.9s7.3-25.3 20.1-25.3 6.8 16.7 13.9 16.7 7.7-4 12.2-4c4.4 0 4.2 12.8 4.2 12.8s-50.4-.5-50.4-.2z" fill="#fbbc04"/><circle cx="85.6" cy="96.8" fill="#fbbc04" r="6.3"/></svg>