<svg width="310" height="186" viewBox="0 0 310 186" xmlns="http://www.w3.org/2000/svg"><title>Graphic4-AutoML@3x</title><g fill="none" fill-rule="evenodd"><path fill="#3362B5" d="M0 0l11.383 18.2 26.767-1.393L26.159 0z"/><path fill="#4285F4" d="M143.792 0L131.8 16.806l26.767 1.393L169.951 0z"/><path d="M157.208 92.04H38.863a1.402 1.402 0 0 1-1.402-1.402V18.034c0-.775.628-1.403 1.402-1.403h118.345c.775 0 1.402.628 1.402 1.403v72.604c0 .775-.627 1.402-1.402 1.402" fill="#3362B5"/><path d="M130.56 92.04H12.216a1.402 1.402 0 0 1-1.402-1.402V18.034c0-.775.627-1.403 1.402-1.403H130.56c.775 0 1.402.628 1.402 1.403v72.604c0 .775-.627 1.402-1.402 1.402" fill="#4285F4"/><path fill="#6BF" d="M63.316 16.826V50.6l-.038 2.653.721-1.262.726 1.262.726-1.262.728 1.262.715-1.241.716 1.241.74-1.283.74 1.283.73-1.262.728 1.262.728-1.262.729 1.262.728-1.262.728 1.262.729-1.262.728 1.262.728-1.262.728 1.262.73-1.262.727 1.262.729-1.262.728 1.262-.008-36.431z"/><path fill="#E0E0E0" style="mix-blend-mode:multiply" d="M84 48.995h154.783v97.661H84z"/><path fill="#FFF" d="M87.995 45h154.783v97.661H87.995z"/><path fill-opacity=".3" fill="#6BF" d="M93.588 51.392h143.595v11.056H93.588zm0 16.779h36.853v67.116H93.588zm43.945 0h99.917v67.116h-99.917z"/><path fill="#E6E7E8" opacity=".4" d="M257 32.841h32.013v35.893H257z"/><path fill="#FFF" d="M261.446 49.332h23.12v2.91h-23.12zm0 5.821h23.12v2.91h-23.12zm0 5.82h19.563v2.91h-19.563z"/><path fill="#E0E0E0" style="mix-blend-mode:multiply" d="M257 71.54h32.013v35.893H257z"/><path fill="#FFF" d="M261.446 88.03h23.12v2.91h-23.12zm0 5.822h23.12v2.91h-23.12zm0 5.82h19.563v2.91h-19.563z"/><path fill="#E6E7E8" opacity=".4" d="M257 111.079h32.013v35.893H257z"/><path fill="#DB4437" opacity=".2" d="M257 32.561h32.013v3.929H257z"/><path fill="#448AFF" d="M257 71.82h32.013v3.929H257z"/><path fill="#0F9D58" opacity=".2" d="M257 111.079h32.013v3.929H257z"/><path fill="#FFF" d="M261.446 127.571h23.12v2.91h-23.12zm0 5.82h23.12v2.91h-23.12zm0 5.821h19.563v2.91h-19.563z"/><g><path d="M309.928 90.86a7.538 7.538 0 0 1-7.535 7.54 7.538 7.538 0 0 1-7.536-7.54 7.538 7.538 0 0 1 7.536-7.543 7.538 7.538 0 0 1 7.535 7.543z" fill="#FBBC05"/><path fill="#FFF" d="M307.098 88.885l-1.017-1.052-5.007 4.866-2.42-2.621-1.07.99 3.449 3.743 1.073-.993-.042-.042z"/></g><g><g opacity=".174"><path fill="#0F9D58" d="M103.82 158h124.6v11.555h-124.6z"/><path fill="#DB4437" d="M97.874 163.945h135.642v12.405H97.874z"/></g><path fill="#448AFF" d="M93.628 170.739h144.134v13.059H93.628z"/><path d="M262.214 177.503a7.61 7.61 0 0 1-7.607 7.611 7.61 7.61 0 0 1-7.607-7.61 7.61 7.61 0 0 1 7.607-7.615 7.61 7.61 0 0 1 7.607 7.614z" fill="#FBBC05"/><path fill="#FFF" d="M259.356 175.51l-1.026-1.062-5.054 4.912-2.442-2.646-1.082 1 3.482 3.778 1.084-1.003-.043-.042z"/></g><g><path fill="#E6E7E8" opacity=".4" d="M31.102 119.287H70.82v6.951H31.102zm0 11.482H70.82v6.951H31.102zm0 11.481H70.82v6.951H31.102z"/><path fill="#E0E0E0" style="mix-blend-mode:multiply" d="M31.102 153.731H70.82v6.951H31.102z"/><path fill="#E6E7E8" opacity=".4" d="M31.102 165.213H70.82v6.951H31.102zm0 11.481H70.82v6.951H31.102z"/><path fill="#448AFF" opacity=".2" d="M31.102 119.287h5.958v6.951h-5.958z"/><path fill="#DB4437" opacity=".2" d="M31.102 130.769h5.958v6.951h-5.958z"/><path fill="#0F9D58" opacity=".2" d="M31.102 142.25h5.958v6.951h-5.958z"/><path fill="#448AFF" d="M31.102 153.731h5.958v6.951h-5.958z"/><path fill="#FBBC05" opacity=".2" d="M31.102 165.213h5.958v6.951h-5.958z"/><path fill="#448AFF" opacity=".2" d="M31.102 176.694h5.958v6.951h-5.958z"/><path d="M24.426 157.72a7.715 7.715 0 0 1-7.713 7.718A7.715 7.715 0 0 1 9 157.72c0-4.264 3.453-7.72 7.713-7.72s7.713 3.456 7.713 7.72z" fill="#FBBC05"/><path fill="#FFF" d="M21.53 155.699l-1.042-1.077-5.124 4.98-2.477-2.682-1.096 1.013 3.53 3.831 1.099-1.016-.043-.043z"/></g></g></svg>